:version 1.10
:name ASF
:units
  mass 1
  length 1
  angle deg
:documentation
  ASF file generated by Kaydara
:root
  axis xyz
  order  tx ty tz rx ry rz
  position 0 0 0
  orientation 0 0 0
:bonedata
  begin
    id 1
    name RightUpLegDummy
    direction -0.718183 -0.695806 0.00816078
    length 4.904
    axis 0 0 0 xyz
  end
  begin
    id 2
    name RightUpLeg
    direction 3.53373e-006 -0.995788 0.0916898
    length 17.4976
    axis -3.49089 -0.000906625 0.000286804 xyz
    dof rx ry rz
  end
  begin
    id 3
    name RightLeg
    direction 0.00371092 -0.995096 -0.0988419
    length 16.5821
    axis 3.68512 0.0193738 -0.131023 xyz
    dof rx ry rz
  end
  begin
    id 4
    name RightFoot
    direction 0.00079151 -0.46099 0.887405
    length 3.77069
    axis 4.81691e-005 -0.120479 -0.188788 xyz
    dof rx ry rz
  end
  begin
    id 5
    name RightToes
    direction 0 0 0
    length 0
    axis 0 0 0 xyz
    dof rx ry rz
  end
  begin
    id 6
    name SpineDummy
    direction 8.3039e-015 1 4.57515e-016
    length 4.6813
    axis 0 0 0 xyz
  end
  begin
    id 7
    name Spine
    direction -3.15643e-008 0.999988 0.00495137
    length 10.1015
    axis -0.001389 0.000121418 2.40972e-006 xyz
    dof rx ry rz
  end
  begin
    id 8
    name Spine1
    direction 0 0 0
    length 0
    axis -0.001389 0.000121451 1.30017e-006 xyz
    dof rx ry rz
  end
  begin
    id 9
    name HEadDummy
    direction -1.99912e-008 0.999999 0.00127422
    length 3.43865
    axis -0.001389 0.000121451 1.30017e-006 xyz
  end
  begin
    id 10
    name HEad
    direction 0 0 0
    length 0
    axis 0 0 0 xyz
    dof rx ry rz
  end
  begin
    id 11
    name LeftShoulder1Dummy
    direction 0.998891 -0.0402509 -0.0244456
    length 3.5433
    axis -0.001389 0.000121451 1.30017e-006 xyz
  end
  begin
    id 12
    name LeftShoulder1
    direction 0.99951 -0.000327763 0.0313091
    length 4.05031
    axis -0.001389 0.000121451 1.30017e-006 xyz
    dof rx ry rz
  end
  begin
    id 13
    name LeftArm
    direction 0.998561 -0.00100056 -0.0536182
    length 10.3537
    axis -23.1894 0.134784 0.967509 xyz
    dof rx ry rz
  end
  begin
    id 14
    name LeftForeArm
    direction 0.998903 0.00866432 0.046012
    length 8.70632
    axis -9.91835 -0.06569 -0.177794 xyz
    dof rx ry rz
  end
  begin
    id 15
    name LeftHand
    direction 0 0 0
    length 0
    axis 0 0 0 xyz
    dof rx ry rz
  end
  begin
    id 16
    name RightShoulderDummy
    direction -0.998891 -0.0402509 -0.0244414
    length 3.5433
    axis -0.001389 0.000121451 1.30017e-006 xyz
  end
  begin
    id 17
    name RightShoulder
    direction -0.99951 -0.000327807 0.0313133
    length 4.05031
    axis 0.215806 0.000203643 -0.0068026 xyz
    dof rx ry rz
  end
  begin
    id 18
    name RightArm
    direction -0.998573 -0.000999564 -0.053403
    length 10.3947
    axis -23.2009 -0.134239 -0.964101 xyz
    dof rx ry rz
  end
  begin
    id 19
    name RightForeArm
    direction -0.998898 0.00868028 0.0461306
    length 8.68355
    axis -9.92322 0.0658061 0.178868 xyz
    dof rx ry rz
  end
  begin
    id 20
    name RightHand
    direction 0 0 0
    length 0
    axis 0 0 0 xyz
    dof rx ry rz
  end
  begin
    id 21
    name LeftUpLegDummy
    direction 0.718183 -0.695806 0.00816078
    length 4.904
    axis 0 0 0 xyz
  end
  begin
    id 22
    name LeftUpLeg
    direction -6.81752e-006 -0.995793 0.0916337
    length 17.4976
    axis -3.48766 0.00143442 -0.000524262 xyz
    dof rx ry rz
  end
  begin
    id 23
    name LeftLeg
    direction -0.00601358 -0.995091 -0.0987824
    length 16.5821
    axis 3.68178 -0.00654042 -0.000285133 xyz
    dof rx ry rz
  end
  begin
    id 24
    name LeftFoot
    direction -0.00417578 -0.460984 0.887399
    length 3.77069
    axis 1.87233e-006 4.66016e-005 -8.6538e-006 xyz
    dof rx ry rz
  end
  begin
    id 25
    name LeftToes
    direction 0 0 0
    length 0
    axis 0 0 0 xyz
    dof rx ry rz
  end
:hierarchy
  begin
    root RightUpLegDummy SpineDummy LeftUpLegDummy
    RightUpLegDummy RightUpLeg
    RightUpLeg RightLeg
    RightLeg RightFoot
    RightFoot RightToes
    SpineDummy Spine
    Spine Spine1
    Spine1 HEadDummy LeftShoulder1Dummy RightShoulderDummy
    HEadDummy HEad
    LeftShoulder1Dummy LeftShoulder1
    LeftShoulder1 LeftArm
    LeftArm LeftForeArm
    LeftForeArm LeftHand
    RightShoulderDummy RightShoulder
    RightShoulder RightArm
    RightArm RightForeArm
    RightForeArm RightHand
    LeftUpLegDummy LeftUpLeg
    LeftUpLeg LeftLeg
    LeftLeg LeftFoot
    LeftFoot LeftToes
  end

:SAMPLES-PER-SECOND 30
:FULLY-SPECIFIED
:DEGREES
174
root  -74.112 41.6777 0.597241 -62.7845 -86.9731 61.9776
RightUpLeg  3.48221 -9.88029 -8.69612
RightLeg  5.33314 -13.0218 2.42544
RightFoot  -3.96675 -0.191739 2.53767
RightToes  0.000481921 0.542163 -0.142578
Spine  2.68125 -0.914051 1.18369
Spine1  -0.896759 -0.529208 -1.52138
HEad  -6.32004 3.58782 3.69153
LeftShoulder1  0.178965 -0.425157 4.43693
LeftArm  -19.8352 10.9329 -2.83376
LeftForeArm  20.1759 -9.87966 -1.58891
LeftHand  -0.25398 0.0180481 5.50724
RightShoulder  0.143459 -2.2221 3.15362
RightArm  -25.2987 -3.55436 -6.62635
RightForeArm  -18.3985 4.43378 3.11643
RightHand  -3.47084 12.5956 -22.5869
LeftUpLeg  0.989751 3.34423 1.69688
LeftLeg  0.206313 5.22535 -3.25888
LeftFoot  0.324113 0.109088 -1.04199
LeftToes  1.06247e-005 4.65869e-005 -8.65512e-006
175
root  -74.1355 41.6747 0.570341 -55.611 -86.7108 55.0419
RightUpLeg  3.43552 -9.83021 -8.62579
RightLeg  5.17217 -13.438 2.428
RightFoot  -4.07026 -0.193804 2.56972
RightToes  0.000481921 0.542163 -0.142578
Spine  2.85882 -1.1127 0.704787
Spine1  -1.21201 -0.783432 -1.23686
HEad  -6.48777 3.28411 3.73438
LeftShoulder1  0.179784 -0.452886 4.46129
LeftArm  -18.97 10.9722 -3.60152
LeftForeArm  21.6564 -9.62199 -1.77855
LeftHand  -0.25398 0.0180481 5.50724
RightShoulder  0.205269 -1.84489 4.37731
RightArm  -26.246 -3.14682 -6.94684
RightForeArm  -15.0354 4.04865 2.56348
RightHand  -2.93827 10.9742 -21.0695
LeftUpLeg  0.71971 3.2881 1.68046
LeftLeg  0.191831 4.84134 -3.24596
LeftFoot  0.320473 0.114165 -1.10569
LeftToes  1.06247e-005 4.65869e-005 -8.65512e-006
176
root  -74.1578 41.6727 0.543983 -52.2045 -86.4459 51.679
RightUpLeg  3.60505 -9.8736 -8.70036
RightLeg  4.96545 -13.646 2.48842
RightFoot  -4.16328 -0.197715 2.63039
RightToes  0.000481921 0.542163 -0.142578
Spine  3.19553 -1.3236 0.431752
Spine1  -1.34204 -0.942998 -1.51822
HEad  -7.15377 3.05188 4.03898
LeftShoulder1  0.158726 -0.317327 4.90754
LeftArm  -16.9404 11.8588 -4.38238
LeftForeArm  22.6678 -10.8148 -2.51466
LeftHand  -0.25398 0.0180481 5.50724
RightShoulder  0.314435 -1.26514 6.40827
RightArm  -26.3738 -2.70099 -7.70246
RightForeArm  -12.1728 3.43603 2.2341
RightHand  -2.52562 9.85682 -19.5231
LeftUpLeg  0.725516 3.20438 1.60365
LeftLeg  0.0781364 4.62482 -3.23402
LeftFoot  0.341577 0.119001 -1.16953
LeftToes  1.06247e-005 4.65869e-005 -8.65512e-006
177
root  -74.1822 41.6724 0.521228 -50.684 -86.2803 50.2262
RightUpLeg  3.68021 -9.9203 -8.74444
RightLeg  4.82369 -13.8137 2.54173
RightFoot  -4.20161 -0.197788 2.63152
RightToes  0.000481921 0.542163 -0.142578
Spine  3.48506 -1.30667 0.202007
Spine1  -1.53978 -0.94955 -1.36832
HEad  -7.47475 2.53173 3.84521
LeftShoulder1  0.218878 -0.801364 3.83587
LeftArm  -16.7251 11.3685 -4.44357
LeftForeArm  22.7786 -8.46802 -2.32182
LeftHand  -0.25398 0.0180481 5.50724
RightShoulder  0.363665 -1.01837 7.02377
RightArm  -25.5883 -2.65183 -7.25355
RightForeArm  -12.148 2.62616 2.33117
RightHand  -2.53761 9.96291 -19.4687
LeftUpLeg  0.714788 3.14977 1.55695
LeftLeg  -0.0227679 4.50948 -3.23803
LeftFoot  0.386324 0.122172 -1.21538
LeftToes  1.06247e-005 4.65869e-005 -8.65512e-006
178
root  -74.2084 41.6732 0.501534 -48.7556 -86.219 48.4209
RightUpLeg  3.68297 -9.91951 -8.68176
RightLeg  4.68086 -13.9443 2.62343
RightFoot  -4.19854 -0.193428 2.56388
RightToes  0.000481921 0.542163 -0.142578
Spine  3.65912 -1.26772 0.150668
Spine1  -1.65923 -0.920838 -1.3293
HEad  -7.53307 1.98723 3.54858
LeftShoulder1  0.278281 -1.20954 2.90583
LeftArm  -16.5025 11.0884 -4.54667
LeftForeArm  22.2009 -6.40156 -2.13641
LeftHand  -0.25398 0.0180481 5.50724
RightShoulder  0.401386 -0.824652 7.42264
RightArm  -24.94 -2.70201 -6.73041
RightForeArm  -12.3648 1.8101 2.39594
RightHand  -2.59356 10.0629 -19.7582
LeftUpLeg  0.564431 3.14918 1.59743
LeftLeg  0.0470972 4.38855 -3.20434
LeftFoot  0.388258 0.122335 -1.21793
LeftToes  1.06247e-005 4.65869e-005 -8.65512e-006
179
root  -74.2395 41.6755 0.478957 -46.0654 -86.1738 45.8348
RightUpLeg  3.77493 -9.87968 -8.57228
RightLeg  4.42808 -14.0829 2.74822
RightFoot  -4.16913 -0.191022 2.52655
RightToes  0.000481921 0.542163 -0.142578
Spine  3.81108 -1.23137 0.0107821
Spine1  -1.66909 -0.929292 -1.11205
HEad  -7.45239 1.59207 3.06075
LeftShoulder1  0.333458 -1.50079 2.03143
LeftArm  -16.3157 10.8801 -4.49761
LeftForeArm  21.8036 -4.5061 -1.95542
LeftHand  -0.25398 0.0180481 5.50724
RightShoulder  0.399195 -0.860905 7.55211
RightArm  -24.7748 -2.6108 -6.38116
RightForeArm  -11.3436 1.16905 2.28098
RightHand  -2.50916 9.80488 -19.4493
LeftUpLeg  0.410779 3.15267 1.67357
LeftLeg  0.171069 4.24547 -3.11455
LeftFoot  0.363119 0.1217 -1.20806
LeftToes  1.06247e-005 4.65869e-005 -8.65512e-006
